<?xml version="1.0" encoding="UTF-8" standalone="no"?>
<!DOCTYPE svg PUBLIC "-//W3C//DTD SVG 1.1//EN" "http://www.w3.org/Graphics/SVG/1.1/DTD/svg11.dtd">
<svg width="100%" height="100%" viewBox="0 0 512 512" version="1.1" xmlns="http://www.w3.org/2000/svg" xmlns:xlink="http://www.w3.org/1999/xlink" xml:space="preserve" xmlns:serif="http://www.serif.com/" style="fill-rule:evenodd;clip-rule:evenodd;stroke-linecap:round;stroke-linejoin:round;stroke-miterlimit:1.5;">
    <g transform="matrix(0.605352,0,0,0.638751,-69.8459,-116.072)">
        <rect x="115.381" y="181.717" width="105.724" height="100.196" style="stroke:black;stroke-width:1.61px;"/>
    </g>
    <g transform="matrix(0.605352,0,0,0.638751,-5.84595,-116.072)">
        <rect x="115.381" y="181.717" width="105.724" height="100.196" style="fill:white;stroke:black;stroke-width:1.61px;"/>
    </g>
    <g transform="matrix(0.605352,0,0,0.638751,58.1541,-116.072)">
        <rect x="115.381" y="181.717" width="105.724" height="100.196" style="stroke:black;stroke-width:1.61px;"/>
    </g>
    <g>
        <g transform="matrix(0.605352,0,0,0.638751,122.154,-116.072)">
            <rect x="115.381" y="181.717" width="105.724" height="100.196" style="fill:rgb(255,0,0);stroke:black;stroke-width:1.61px;"/>
        </g>
        <g transform="matrix(0.605352,0,0,0.638751,378.154,-116.072)">
            <rect x="115.381" y="181.717" width="105.724" height="100.196" style="fill:rgb(255,0,0);stroke:black;stroke-width:1.61px;"/>
        </g>
        <g transform="matrix(0.605352,0,0,0.638751,-69.8459,-52.0719)">
            <rect x="115.381" y="181.717" width="105.724" height="100.196" style="fill:rgb(255,0,0);stroke:black;stroke-width:1.61px;"/>
        </g>
        <g transform="matrix(0.605352,0,0,0.638751,122.154,-52.0719)">
            <rect x="115.381" y="181.717" width="105.724" height="100.196" style="fill:rgb(255,0,0);stroke:black;stroke-width:1.61px;"/>
        </g>
        <g transform="matrix(0.605352,0,0,0.638751,314.154,-52.0719)">
            <rect x="115.381" y="181.717" width="105.724" height="100.196" style="fill:rgb(255,0,0);stroke:black;stroke-width:1.61px;"/>
        </g>
        <g transform="matrix(0.605352,0,0,0.638751,-5.84595,11.9281)">
            <rect x="115.381" y="181.717" width="105.724" height="100.196" style="fill:rgb(255,0,0);stroke:black;stroke-width:1.61px;"/>
        </g>
        <g transform="matrix(0.605352,0,0,0.638751,122.154,11.9281)">
            <rect x="115.381" y="181.717" width="105.724" height="100.196" style="fill:rgb(255,0,0);stroke:black;stroke-width:1.61px;"/>
        </g>
        <g transform="matrix(0.605352,0,0,0.638751,250.154,11.9281)">
            <rect x="115.381" y="181.717" width="105.724" height="100.196" style="fill:rgb(255,0,0);stroke:black;stroke-width:1.61px;"/>
        </g>
        <g transform="matrix(0.605352,0,0,0.638751,58.1541,75.9281)">
            <rect x="115.381" y="181.717" width="105.724" height="100.196" style="fill:rgb(255,0,0);stroke:black;stroke-width:1.61px;"/>
        </g>
        <g transform="matrix(0.605352,0,0,0.638751,122.154,75.9281)">
            <rect x="115.381" y="181.717" width="105.724" height="100.196" style="fill:rgb(255,0,0);stroke:black;stroke-width:1.61px;"/>
        </g>
        <g transform="matrix(0.605352,0,0,0.638751,186.154,75.9281)">
            <rect x="115.381" y="181.717" width="105.724" height="100.196" style="fill:rgb(255,0,0);stroke:black;stroke-width:1.61px;"/>
        </g>
        <g transform="matrix(0.605352,0,0,0.638751,-69.8459,139.928)">
            <rect x="115.381" y="181.717" width="105.724" height="100.196" style="fill:rgb(255,0,0);stroke:black;stroke-width:1.61px;"/>
        </g>
        <g transform="matrix(0.605352,0,0,0.638751,-5.84595,139.928)">
            <rect x="115.381" y="181.717" width="105.724" height="100.196" style="fill:rgb(255,0,0);stroke:black;stroke-width:1.61px;"/>
        </g>
        <g transform="matrix(0.605352,0,0,0.638751,58.1541,139.928)">
            <rect x="115.381" y="181.717" width="105.724" height="100.196" style="fill:rgb(255,0,0);stroke:black;stroke-width:1.61px;"/>
        </g>
        <g transform="matrix(0.605352,0,0,0.638751,122.154,139.928)">
            <rect x="115.381" y="181.717" width="105.724" height="100.196" style="fill:rgb(255,0,0);stroke:black;stroke-width:1.61px;"/>
        </g>
        <g transform="matrix(0.605352,0,0,0.638751,186.154,139.928)">
            <rect x="115.381" y="181.717" width="105.724" height="100.196" style="fill:rgb(255,0,0);stroke:black;stroke-width:1.61px;"/>
        </g>
        <g transform="matrix(0.605352,0,0,0.638751,250.154,139.928)">
            <rect x="115.381" y="181.717" width="105.724" height="100.196" style="fill:rgb(255,0,0);stroke:black;stroke-width:1.61px;"/>
        </g>
        <g transform="matrix(0.605352,0,0,0.638751,314.154,139.928)">
            <rect x="115.381" y="181.717" width="105.724" height="100.196" style="fill:rgb(255,0,0);stroke:black;stroke-width:1.61px;"/>
        </g>
        <g transform="matrix(0.605352,0,0,0.638751,378.154,139.928)">
            <rect x="115.381" y="181.717" width="105.724" height="100.196" style="fill:rgb(255,0,0);stroke:black;stroke-width:1.61px;"/>
        </g>
        <g transform="matrix(0.605352,0,0,0.638751,58.1541,203.928)">
            <rect x="115.381" y="181.717" width="105.724" height="100.196" style="fill:rgb(255,0,0);stroke:black;stroke-width:1.61px;"/>
        </g>
        <g transform="matrix(0.605352,0,0,0.638751,122.154,203.928)">
            <rect x="115.381" y="181.717" width="105.724" height="100.196" style="fill:rgb(255,0,0);stroke:black;stroke-width:1.61px;"/>
        </g>
        <g transform="matrix(0.605352,0,0,0.638751,186.154,203.928)">
            <rect x="115.381" y="181.717" width="105.724" height="100.196" style="fill:rgb(255,0,0);stroke:black;stroke-width:1.61px;"/>
        </g>
        <g transform="matrix(0.605352,0,0,0.638751,-5.84595,267.928)">
            <rect x="115.381" y="181.717" width="105.724" height="100.196" style="fill:rgb(255,0,0);stroke:black;stroke-width:1.61px;"/>
        </g>
        <g transform="matrix(0.605352,0,0,0.638751,122.154,267.928)">
            <rect x="115.381" y="181.717" width="105.724" height="100.196" style="fill:rgb(255,0,0);stroke:black;stroke-width:1.61px;"/>
        </g>
        <g transform="matrix(0.605352,0,0,0.638751,250.154,267.928)">
            <rect x="115.381" y="181.717" width="105.724" height="100.196" style="fill:rgb(255,0,0);stroke:black;stroke-width:1.61px;"/>
        </g>
        <g transform="matrix(0.605352,0,0,0.638751,-69.8459,331.928)">
            <rect x="115.381" y="181.717" width="105.724" height="100.196" style="fill:rgb(255,0,0);stroke:black;stroke-width:1.61px;"/>
        </g>
        <g transform="matrix(0.605352,0,0,0.638751,122.154,331.928)">
            <rect x="115.381" y="181.717" width="105.724" height="100.196" style="fill:rgb(255,0,0);stroke:black;stroke-width:1.61px;"/>
        </g>
        <g transform="matrix(0.605352,0,0,0.638751,314.154,331.928)">
            <rect x="115.381" y="181.717" width="105.724" height="100.196" style="fill:rgb(255,0,0);stroke:black;stroke-width:1.61px;"/>
        </g>
    </g>
    <g transform="matrix(0.605352,0,0,0.638751,186.154,-116.072)">
        <rect x="115.381" y="181.717" width="105.724" height="100.196" style="stroke:black;stroke-width:1.61px;"/>
    </g>
    <g transform="matrix(0.605352,0,0,0.638751,250.154,-116.072)">
        <rect x="115.381" y="181.717" width="105.724" height="100.196" style="fill:white;stroke:black;stroke-width:1.61px;"/>
    </g>
    <g transform="matrix(0.605352,0,0,0.638751,314.154,-116.072)">
        <rect x="115.381" y="181.717" width="105.724" height="100.196" style="stroke:black;stroke-width:1.61px;"/>
    </g>
    <g transform="matrix(0.605352,0,0,0.638751,-5.84595,-52.0719)">
        <rect x="115.381" y="181.717" width="105.724" height="100.196" style="stroke:black;stroke-width:1.61px;"/>
    </g>
    <g transform="matrix(0.605352,0,0,0.638751,58.1541,-52.0719)">
        <rect x="115.381" y="181.717" width="105.724" height="100.196" style="fill:white;stroke:black;stroke-width:1.61px;"/>
    </g>
    <g transform="matrix(0.605352,0,0,0.638751,186.154,-52.0719)">
        <rect x="115.381" y="181.717" width="105.724" height="100.196" style="fill:white;stroke:black;stroke-width:1.61px;"/>
    </g>
    <g transform="matrix(0.605352,0,0,0.638751,250.154,-52.0719)">
        <rect x="115.381" y="181.717" width="105.724" height="100.196" style="stroke:black;stroke-width:1.61px;"/>
    </g>
    <g transform="matrix(0.605352,0,0,0.638751,378.154,-52.0719)">
        <rect x="115.381" y="181.717" width="105.724" height="100.196" style="stroke:black;stroke-width:1.61px;"/>
    </g>
    <g transform="matrix(0.605352,0,0,0.638751,-69.8459,11.9281)">
        <rect x="115.381" y="181.717" width="105.724" height="100.196" style="stroke:black;stroke-width:1.61px;"/>
    </g>
    <g transform="matrix(0.605352,0,0,0.638751,58.1541,11.9281)">
        <rect x="115.381" y="181.717" width="105.724" height="100.196" style="stroke:black;stroke-width:1.61px;"/>
    </g>
    <g transform="matrix(0.605352,0,0,0.638751,186.154,11.9281)">
        <rect x="115.381" y="181.717" width="105.724" height="100.196" style="stroke:black;stroke-width:1.61px;"/>
    </g>
    <g transform="matrix(0.605352,0,0,0.638751,314.154,11.9281)">
        <rect x="115.381" y="181.717" width="105.724" height="100.196" style="stroke:black;stroke-width:1.61px;"/>
    </g>
    <g transform="matrix(0.605352,0,0,0.638751,378.154,11.9281)">
        <rect x="115.381" y="181.717" width="105.724" height="100.196" style="fill:white;stroke:black;stroke-width:1.61px;"/>
    </g>
    <g transform="matrix(0.605352,0,0,0.638751,-69.8459,75.9281)">
        <rect x="115.381" y="181.717" width="105.724" height="100.196" style="fill:white;stroke:black;stroke-width:1.61px;"/>
    </g>
    <g transform="matrix(0.605352,0,0,0.638751,-5.84595,75.9281)">
        <rect x="115.381" y="181.717" width="105.724" height="100.196" style="stroke:black;stroke-width:1.61px;"/>
    </g>
    <g transform="matrix(0.605352,0,0,0.638751,250.154,75.9281)">
        <rect x="115.381" y="181.717" width="105.724" height="100.196" style="stroke:black;stroke-width:1.61px;"/>
    </g>
    <g transform="matrix(0.605352,0,0,0.638751,314.154,75.9281)">
        <rect x="115.381" y="181.717" width="105.724" height="100.196" style="fill:white;stroke:black;stroke-width:1.61px;"/>
    </g>
    <g transform="matrix(0.605352,0,0,0.638751,378.154,75.9281)">
        <rect x="115.381" y="181.717" width="105.724" height="100.196" style="stroke:black;stroke-width:1.61px;"/>
    </g>
    <g transform="matrix(0.605352,0,0,0.638751,-69.8459,203.928)">
        <rect x="115.381" y="181.717" width="105.724" height="100.196" style="fill:white;stroke:black;stroke-width:1.61px;"/>
    </g>
    <g transform="matrix(0.605352,0,0,0.638751,-5.84595,203.928)">
        <rect x="115.381" y="181.717" width="105.724" height="100.196" style="stroke:black;stroke-width:1.61px;"/>
    </g>
    <g transform="matrix(0.605352,0,0,0.638751,250.154,203.928)">
        <rect x="115.381" y="181.717" width="105.724" height="100.196" style="stroke:black;stroke-width:1.61px;"/>
    </g>
    <g transform="matrix(0.605352,0,0,0.638751,314.154,203.928)">
        <rect x="115.381" y="181.717" width="105.724" height="100.196" style="fill:white;stroke:black;stroke-width:1.61px;"/>
    </g>
    <g transform="matrix(0.605352,0,0,0.638751,378.154,203.928)">
        <rect x="115.381" y="181.717" width="105.724" height="100.196" style="stroke:black;stroke-width:1.61px;"/>
    </g>
    <g transform="matrix(0.605352,0,0,0.638751,-69.8459,267.928)">
        <rect x="115.381" y="181.717" width="105.724" height="100.196" style="stroke:black;stroke-width:1.61px;"/>
    </g>
    <g transform="matrix(0.605352,0,0,0.638751,58.1541,267.928)">
        <rect x="115.381" y="181.717" width="105.724" height="100.196" style="stroke:black;stroke-width:1.61px;"/>
    </g>
    <g transform="matrix(0.605352,0,0,0.638751,186.154,267.928)">
        <rect x="115.381" y="181.717" width="105.724" height="100.196" style="stroke:black;stroke-width:1.61px;"/>
    </g>
    <g transform="matrix(0.605352,0,0,0.638751,314.154,267.928)">
        <rect x="115.381" y="181.717" width="105.724" height="100.196" style="stroke:black;stroke-width:1.61px;"/>
    </g>
    <g transform="matrix(0.605352,0,0,0.638751,378.154,267.928)">
        <rect x="115.381" y="181.717" width="105.724" height="100.196" style="fill:white;stroke:black;stroke-width:1.61px;"/>
    </g>
    <g transform="matrix(0.605352,0,0,0.638751,-5.84595,331.928)">
        <rect x="115.381" y="181.717" width="105.724" height="100.196" style="stroke:black;stroke-width:1.61px;"/>
    </g>
    <g transform="matrix(0.605352,0,0,0.638751,58.1541,331.928)">
        <rect x="115.381" y="181.717" width="105.724" height="100.196" style="fill:white;stroke:black;stroke-width:1.61px;"/>
    </g>
    <g transform="matrix(0.605352,0,0,0.638751,186.154,331.928)">
        <rect x="115.381" y="181.717" width="105.724" height="100.196" style="fill:white;stroke:black;stroke-width:1.61px;"/>
    </g>
    <g transform="matrix(0.605352,0,0,0.638751,250.154,331.928)">
        <rect x="115.381" y="181.717" width="105.724" height="100.196" style="stroke:black;stroke-width:1.61px;"/>
    </g>
    <g transform="matrix(0.605352,0,0,0.638751,378.154,331.928)">
        <rect x="115.381" y="181.717" width="105.724" height="100.196" style="stroke:black;stroke-width:1.61px;"/>
    </g>
    <g transform="matrix(1,0,0,1,159.644,266.602)">
        <text x="32.46px" y="44.898px" style="font-family:'MS-UIGothic', 'MS UI Gothic', sans-serif;font-size:64px;stroke:black;stroke-width:1px;stroke-linecap:butt;stroke-miterlimit:2;">♕</text>
    </g>
</svg>
